<!DOCTYPE svg PUBLIC "-//W3C//DTD SVG 1.1//EN" "http://www.w3.org/Graphics/SVG/1.1/DTD/svg11.dtd">
<!-- Uploaded to: SVG Repo, www.svgrepo.com, Transformed by: SVG Repo Mixer Tools -->
<svg width="800px" height="800px" viewBox="0 0 24 24" fill="none" xmlns="http://www.w3.org/2000/svg">
<g id="SVGRepo_bgCarrier" stroke-width="0"/>
<g id="SVGRepo_tracerCarrier" stroke-linecap="round" stroke-linejoin="round"/>
<g id="SVGRepo_iconCarrier"> <path d="M22 20C22 20.5523 21.5523 21 21 21C20.4477 21 20 20.5523 20 20V4C20 3.44772 20.4477 3 21 3C21.5523 3 22 3.44772 22 4V20Z" fill="#ffffff"/> <path d="M8.70711 17.7071C9.09763 17.3166 9.09763 16.6834 8.70711 16.2929L5.41421 13L16 13C16.5523 13 17 12.5523 17 12C17 11.4477 16.5523 11 16 11L5.41421 11L8.70711 7.70711C9.09763 7.31658 9.09763 6.68342 8.70711 6.29289C8.31658 5.90237 7.68342 5.90237 7.29289 6.29289L2.29289 11.2929C1.90237 11.6834 1.90237 12.3166 2.29289 12.7071L7.29289 17.7071C7.68342 18.0976 8.31658 18.0976 8.70711 17.7071Z" fill="#ffffff"/> </g>
</svg>